<mxfile host="app.diagrams.net" agent="Mozilla/5.0 (Windows NT 10.0; Win64; x64) AppleWebKit/537.36 (KHTML, like Gecko) Chrome/136.0.0.0 Safari/537.36 Edg/136.0.0.0" version="27.0.3">
  <diagram name="Page-1" id="nxyhiHaebpTfMFGvuEcx">
    <mxGraphModel dx="1418" dy="794" grid="1" gridSize="10" guides="1" tooltips="1" connect="1" arrows="1" fold="1" page="1" pageScale="1" pageWidth="850" pageHeight="1100" math="0" shadow="0">
      <root>
        <mxCell id="0" />
        <mxCell id="1" parent="0" />
        <mxCell id="ng0P3CM7P3hSEXRsEJAU-1" value="Học viên/sinh viên" style="swimlane;startSize=20;whiteSpace=wrap;html=1;fontStyle=1" parent="1" vertex="1">
          <mxGeometry x="60" y="150" width="390" height="1090" as="geometry" />
        </mxCell>
        <mxCell id="ng0P3CM7P3hSEXRsEJAU-2" value="" style="ellipse;html=1;shape=startState;fillColor=#000000;strokeColor=#ff0000;fontStyle=1" parent="ng0P3CM7P3hSEXRsEJAU-1" vertex="1">
          <mxGeometry x="170" y="30" width="30" height="30" as="geometry" />
        </mxCell>
        <mxCell id="ng0P3CM7P3hSEXRsEJAU-3" value="" style="edgeStyle=orthogonalEdgeStyle;html=1;verticalAlign=bottom;endArrow=open;endSize=8;strokeColor=#ff0000;rounded=0;fontStyle=1" parent="ng0P3CM7P3hSEXRsEJAU-1" source="ng0P3CM7P3hSEXRsEJAU-2" edge="1">
          <mxGeometry relative="1" as="geometry">
            <mxPoint x="185" y="120" as="targetPoint" />
          </mxGeometry>
        </mxCell>
        <mxCell id="ng0P3CM7P3hSEXRsEJAU-47" style="edgeStyle=orthogonalEdgeStyle;rounded=0;orthogonalLoop=1;jettySize=auto;html=1;entryX=0.5;entryY=0;entryDx=0;entryDy=0;fontStyle=1" parent="ng0P3CM7P3hSEXRsEJAU-1" source="ng0P3CM7P3hSEXRsEJAU-44" target="ng0P3CM7P3hSEXRsEJAU-46" edge="1">
          <mxGeometry relative="1" as="geometry" />
        </mxCell>
        <mxCell id="ng0P3CM7P3hSEXRsEJAU-44" value="Chọn số sao" style="rounded=1;whiteSpace=wrap;html=1;fontStyle=1" parent="ng0P3CM7P3hSEXRsEJAU-1" vertex="1">
          <mxGeometry x="125" y="230" width="120" height="60" as="geometry" />
        </mxCell>
        <mxCell id="ng0P3CM7P3hSEXRsEJAU-49" style="edgeStyle=orthogonalEdgeStyle;rounded=0;orthogonalLoop=1;jettySize=auto;html=1;fontStyle=1" parent="ng0P3CM7P3hSEXRsEJAU-1" source="ng0P3CM7P3hSEXRsEJAU-46" target="ng0P3CM7P3hSEXRsEJAU-48" edge="1">
          <mxGeometry relative="1" as="geometry" />
        </mxCell>
        <mxCell id="ng0P3CM7P3hSEXRsEJAU-46" value="Viết đánh giá" style="rounded=1;whiteSpace=wrap;html=1;fontStyle=1" parent="ng0P3CM7P3hSEXRsEJAU-1" vertex="1">
          <mxGeometry x="125" y="330" width="120" height="60" as="geometry" />
        </mxCell>
        <mxCell id="ng0P3CM7P3hSEXRsEJAU-48" value="Gửi đánh giá" style="rounded=1;whiteSpace=wrap;html=1;fontStyle=1" parent="ng0P3CM7P3hSEXRsEJAU-1" vertex="1">
          <mxGeometry x="125" y="420" width="120" height="60" as="geometry" />
        </mxCell>
        <mxCell id="ng0P3CM7P3hSEXRsEJAU-69" value="" style="ellipse;html=1;shape=endState;fillColor=#000000;strokeColor=#ff0000;fontStyle=1" parent="ng0P3CM7P3hSEXRsEJAU-1" vertex="1">
          <mxGeometry x="170" y="1040" width="30" height="30" as="geometry" />
        </mxCell>
        <mxCell id="ng0P3CM7P3hSEXRsEJAU-15" value="Hệ Thống" style="swimlane;startSize=20;whiteSpace=wrap;html=1;fontStyle=1" parent="1" vertex="1">
          <mxGeometry x="451" y="150" width="309" height="1090" as="geometry" />
        </mxCell>
        <mxCell id="ng0P3CM7P3hSEXRsEJAU-42" style="edgeStyle=orthogonalEdgeStyle;rounded=0;orthogonalLoop=1;jettySize=auto;html=1;entryX=0.5;entryY=0;entryDx=0;entryDy=0;fontStyle=1" parent="ng0P3CM7P3hSEXRsEJAU-15" source="ng0P3CM7P3hSEXRsEJAU-39" target="ng0P3CM7P3hSEXRsEJAU-41" edge="1">
          <mxGeometry relative="1" as="geometry" />
        </mxCell>
        <mxCell id="ng0P3CM7P3hSEXRsEJAU-43" value="hoàn thành" style="edgeLabel;html=1;align=center;verticalAlign=middle;resizable=0;points=[];fontStyle=1" parent="ng0P3CM7P3hSEXRsEJAU-42" vertex="1" connectable="0">
          <mxGeometry x="-0.2493" relative="1" as="geometry">
            <mxPoint as="offset" />
          </mxGeometry>
        </mxCell>
        <mxCell id="ng0P3CM7P3hSEXRsEJAU-39" value="Đã hoàn thành khóa học" style="rhombus;whiteSpace=wrap;html=1;fontStyle=1" parent="ng0P3CM7P3hSEXRsEJAU-15" vertex="1">
          <mxGeometry x="114.5" y="110" width="80" height="80" as="geometry" />
        </mxCell>
        <mxCell id="ng0P3CM7P3hSEXRsEJAU-41" value="Hiển thị form đánh giá" style="rounded=1;whiteSpace=wrap;html=1;fontStyle=1" parent="ng0P3CM7P3hSEXRsEJAU-15" vertex="1">
          <mxGeometry x="94.5" y="230" width="120" height="60" as="geometry" />
        </mxCell>
        <mxCell id="ng0P3CM7P3hSEXRsEJAU-56" style="edgeStyle=orthogonalEdgeStyle;rounded=0;orthogonalLoop=1;jettySize=auto;html=1;fontStyle=1" parent="ng0P3CM7P3hSEXRsEJAU-15" source="ng0P3CM7P3hSEXRsEJAU-50" target="ng0P3CM7P3hSEXRsEJAU-55" edge="1">
          <mxGeometry relative="1" as="geometry" />
        </mxCell>
        <mxCell id="ng0P3CM7P3hSEXRsEJAU-57" value="hợp lệ" style="edgeLabel;html=1;align=center;verticalAlign=middle;resizable=0;points=[];fontStyle=1" parent="ng0P3CM7P3hSEXRsEJAU-56" vertex="1" connectable="0">
          <mxGeometry x="-0.1194" y="2" relative="1" as="geometry">
            <mxPoint as="offset" />
          </mxGeometry>
        </mxCell>
        <mxCell id="ng0P3CM7P3hSEXRsEJAU-50" value="Kiểm tra nội dung đánh giá" style="rhombus;whiteSpace=wrap;html=1;fontStyle=1" parent="ng0P3CM7P3hSEXRsEJAU-15" vertex="1">
          <mxGeometry x="114.5" y="410" width="80" height="80" as="geometry" />
        </mxCell>
        <mxCell id="ng0P3CM7P3hSEXRsEJAU-60" style="edgeStyle=orthogonalEdgeStyle;rounded=0;orthogonalLoop=1;jettySize=auto;html=1;fontStyle=1" parent="ng0P3CM7P3hSEXRsEJAU-15" source="ng0P3CM7P3hSEXRsEJAU-55" target="ng0P3CM7P3hSEXRsEJAU-59" edge="1">
          <mxGeometry relative="1" as="geometry" />
        </mxCell>
        <mxCell id="ng0P3CM7P3hSEXRsEJAU-55" value="Lưu đánh giá" style="rounded=1;whiteSpace=wrap;html=1;fontStyle=1" parent="ng0P3CM7P3hSEXRsEJAU-15" vertex="1">
          <mxGeometry x="94.5" y="540" width="120" height="60" as="geometry" />
        </mxCell>
        <mxCell id="ng0P3CM7P3hSEXRsEJAU-63" style="edgeStyle=orthogonalEdgeStyle;rounded=0;orthogonalLoop=1;jettySize=auto;html=1;fontStyle=1" parent="ng0P3CM7P3hSEXRsEJAU-15" source="ng0P3CM7P3hSEXRsEJAU-59" target="ng0P3CM7P3hSEXRsEJAU-62" edge="1">
          <mxGeometry relative="1" as="geometry" />
        </mxCell>
        <mxCell id="ng0P3CM7P3hSEXRsEJAU-59" value="Tính đánh giá trung bình" style="rounded=1;whiteSpace=wrap;html=1;fontStyle=1" parent="ng0P3CM7P3hSEXRsEJAU-15" vertex="1">
          <mxGeometry x="94.5" y="640" width="120" height="60" as="geometry" />
        </mxCell>
        <mxCell id="ng0P3CM7P3hSEXRsEJAU-66" style="edgeStyle=orthogonalEdgeStyle;rounded=0;orthogonalLoop=1;jettySize=auto;html=1;entryX=0.5;entryY=0;entryDx=0;entryDy=0;fontStyle=1" parent="ng0P3CM7P3hSEXRsEJAU-15" source="ng0P3CM7P3hSEXRsEJAU-62" target="ng0P3CM7P3hSEXRsEJAU-65" edge="1">
          <mxGeometry relative="1" as="geometry" />
        </mxCell>
        <mxCell id="ng0P3CM7P3hSEXRsEJAU-62" value="Cập nhật thống kê khóa học" style="rounded=1;whiteSpace=wrap;html=1;fontStyle=1" parent="ng0P3CM7P3hSEXRsEJAU-15" vertex="1">
          <mxGeometry x="94.5" y="740" width="120" height="60" as="geometry" />
        </mxCell>
        <mxCell id="ng0P3CM7P3hSEXRsEJAU-68" style="edgeStyle=orthogonalEdgeStyle;rounded=0;orthogonalLoop=1;jettySize=auto;html=1;entryX=0.5;entryY=0;entryDx=0;entryDy=0;fontStyle=1" parent="ng0P3CM7P3hSEXRsEJAU-15" source="ng0P3CM7P3hSEXRsEJAU-65" target="ng0P3CM7P3hSEXRsEJAU-67" edge="1">
          <mxGeometry relative="1" as="geometry" />
        </mxCell>
        <mxCell id="ng0P3CM7P3hSEXRsEJAU-65" value="Gửi thông báo cho giảng viên" style="rounded=1;whiteSpace=wrap;html=1;fontStyle=1" parent="ng0P3CM7P3hSEXRsEJAU-15" vertex="1">
          <mxGeometry x="94.5" y="840" width="120" height="60" as="geometry" />
        </mxCell>
        <mxCell id="ng0P3CM7P3hSEXRsEJAU-67" value="Hiển thị kết quả đánh giá" style="rounded=1;whiteSpace=wrap;html=1;fontStyle=1" parent="ng0P3CM7P3hSEXRsEJAU-15" vertex="1">
          <mxGeometry x="94.5" y="940" width="120" height="60" as="geometry" />
        </mxCell>
        <mxCell id="ng0P3CM7P3hSEXRsEJAU-27" value="&lt;span style=&quot;font-size: 24px;&quot;&gt;Đánh giá khóa học&lt;/span&gt;" style="text;html=1;align=center;verticalAlign=middle;whiteSpace=wrap;rounded=0;fontStyle=1" parent="1" vertex="1">
          <mxGeometry x="170" y="110" width="541" height="30" as="geometry" />
        </mxCell>
        <mxCell id="ng0P3CM7P3hSEXRsEJAU-40" style="edgeStyle=orthogonalEdgeStyle;rounded=0;orthogonalLoop=1;jettySize=auto;html=1;fontStyle=1" parent="1" source="ng0P3CM7P3hSEXRsEJAU-36" target="ng0P3CM7P3hSEXRsEJAU-39" edge="1">
          <mxGeometry relative="1" as="geometry" />
        </mxCell>
        <mxCell id="ng0P3CM7P3hSEXRsEJAU-36" value="Truy cập mục đánh giá" style="rounded=1;whiteSpace=wrap;html=1;fontStyle=1" parent="1" vertex="1">
          <mxGeometry x="185" y="270" width="120" height="60" as="geometry" />
        </mxCell>
        <mxCell id="ng0P3CM7P3hSEXRsEJAU-45" style="edgeStyle=orthogonalEdgeStyle;rounded=0;orthogonalLoop=1;jettySize=auto;html=1;fontStyle=1" parent="1" source="ng0P3CM7P3hSEXRsEJAU-41" target="ng0P3CM7P3hSEXRsEJAU-44" edge="1">
          <mxGeometry relative="1" as="geometry" />
        </mxCell>
        <mxCell id="ng0P3CM7P3hSEXRsEJAU-51" style="edgeStyle=orthogonalEdgeStyle;rounded=0;orthogonalLoop=1;jettySize=auto;html=1;entryX=0;entryY=0.5;entryDx=0;entryDy=0;fontStyle=1" parent="1" source="ng0P3CM7P3hSEXRsEJAU-48" target="ng0P3CM7P3hSEXRsEJAU-50" edge="1">
          <mxGeometry relative="1" as="geometry" />
        </mxCell>
        <mxCell id="ng0P3CM7P3hSEXRsEJAU-53" style="edgeStyle=orthogonalEdgeStyle;rounded=0;orthogonalLoop=1;jettySize=auto;html=1;entryX=1;entryY=0.5;entryDx=0;entryDy=0;fontStyle=1" parent="1" source="ng0P3CM7P3hSEXRsEJAU-50" target="ng0P3CM7P3hSEXRsEJAU-46" edge="1">
          <mxGeometry relative="1" as="geometry">
            <Array as="points">
              <mxPoint x="606" y="510" />
            </Array>
          </mxGeometry>
        </mxCell>
        <mxCell id="ng0P3CM7P3hSEXRsEJAU-54" value="không hợp lệ" style="edgeLabel;html=1;align=center;verticalAlign=middle;resizable=0;points=[];fontStyle=1" parent="ng0P3CM7P3hSEXRsEJAU-53" vertex="1" connectable="0">
          <mxGeometry x="-0.3422" relative="1" as="geometry">
            <mxPoint as="offset" />
          </mxGeometry>
        </mxCell>
        <mxCell id="ng0P3CM7P3hSEXRsEJAU-71" style="edgeStyle=orthogonalEdgeStyle;rounded=0;orthogonalLoop=1;jettySize=auto;html=1;entryX=0.5;entryY=0;entryDx=0;entryDy=0;fontStyle=1" parent="1" source="ng0P3CM7P3hSEXRsEJAU-67" target="ng0P3CM7P3hSEXRsEJAU-69" edge="1">
          <mxGeometry relative="1" as="geometry" />
        </mxCell>
        <mxCell id="ng0P3CM7P3hSEXRsEJAU-72" style="edgeStyle=orthogonalEdgeStyle;rounded=0;orthogonalLoop=1;jettySize=auto;html=1;entryX=1;entryY=0.5;entryDx=0;entryDy=0;fontStyle=1" parent="1" source="ng0P3CM7P3hSEXRsEJAU-39" target="ng0P3CM7P3hSEXRsEJAU-69" edge="1">
          <mxGeometry relative="1" as="geometry">
            <Array as="points">
              <mxPoint x="720" y="300" />
              <mxPoint x="720" y="1205" />
            </Array>
          </mxGeometry>
        </mxCell>
        <mxCell id="ng0P3CM7P3hSEXRsEJAU-73" value="chưa hoàn thành" style="edgeLabel;html=1;align=center;verticalAlign=middle;resizable=0;points=[];fontStyle=1" parent="ng0P3CM7P3hSEXRsEJAU-72" vertex="1" connectable="0">
          <mxGeometry x="-0.8217" y="-3" relative="1" as="geometry">
            <mxPoint x="-7" as="offset" />
          </mxGeometry>
        </mxCell>
      </root>
    </mxGraphModel>
  </diagram>
</mxfile>
